<?xml version="1.0" standalone="no"?>
<!DOCTYPE svg PUBLIC "-//W3C//DTD SVG 20010904//EN"
 "http://www.w3.org/TR/2001/REC-SVG-20010904/DTD/svg10.dtd">
<svg version="1.0" xmlns="http://www.w3.org/2000/svg"
 width="1008.000000pt" height="1044.000000pt" viewBox="0 0 1008.000000 1044.000000"
 preserveAspectRatio="xMidYMid meet">

<g transform="translate(0.000000,1044.000000) scale(0.100000,-0.100000)"
fill="#000000" stroke="none">
<path d="M4890 8304 c-510 -69 -986 -355 -1305 -784 -129 -174 -230 -376 -271
-545 -27 -110 -25 -281 5 -373 65 -198 247 -368 586 -543 244 -126 494 -224
653 -255 241 -46 361 10 972 459 459 337 462 340 449 315 -25 -47 -189 -287
-277 -405 -351 -470 -680 -707 -1029 -739 -337 -31 -934 208 -1416 569 -273
204 -403 368 -526 660 -15 35 -25 48 -38 45 -17 -3 -332 -394 -424 -525 -66
-95 -79 -130 -79 -206 0 -51 6 -76 30 -124 72 -144 368 -401 770 -669 522
-348 956 -541 1350 -599 137 -21 381 -16 500 10 266 58 540 190 965 465 324
210 507 325 580 364 l70 38 -30 -32 c-44 -47 -290 -260 -435 -377 -324 -260
-814 -585 -1095 -725 -321 -161 -555 -221 -870 -222 -235 -1 -374 25 -646 119
-425 147 -982 455 -1364 756 -137 107 -209 149 -228 130 -21 -21 35 -111 134
-211 265 -271 744 -602 1414 -980 468 -264 643 -340 884 -386 116 -22 338 -22
456 0 372 71 867 349 1490 836 620 484 1014 897 1182 1238 49 99 57 123 60
185 5 88 -14 131 -73 161 -33 18 -56 21 -149 20 -101 -1 -119 -4 -214 -38
-185 -66 -360 -165 -638 -359 -595 -416 -765 -520 -978 -600 -199 -75 -433
-96 -650 -59 -386 66 -817 264 -1365 627 -291 193 -393 293 -378 372 4 25 60
29 115 8 24 -9 159 -94 301 -189 458 -306 749 -453 1045 -530 271 -71 498 -57
756 45 478 189 1082 805 1472 1504 184 330 307 664 269 735 -23 43 -110 19
-322 -86 -209 -105 -490 -285 -908 -583 -234 -167 -504 -347 -615 -409 -141
-80 -284 -133 -358 -134 -120 -2 -237 54 -359 170 -114 109 -190 231 -244 392
-27 81 -28 94 -28 260 0 161 3 182 28 265 37 122 103 256 174 351 82 110 232
250 359 335 102 67 352 196 456 234 96 36 -16 45 -213 19z"/>
</g>
</svg>
